<mxfile host="app.diagrams.net" modified="2024-04-24T13:19:14.372Z" agent="Mozilla/5.0 (Windows NT 10.0; Win64; x64; rv:109.0) Gecko/20100101 Firefox/113.0" etag="GTfLyt8MT7EgdaSq8G2H" version="24.2.8" type="device">
  <diagram name="Page-1" id="gZ2owAIogtQZYCgnZvjZ">
    <mxGraphModel dx="2074" dy="1142" grid="1" gridSize="10" guides="1" tooltips="1" connect="1" arrows="1" fold="1" page="1" pageScale="1" pageWidth="850" pageHeight="1100" math="0" shadow="0">
      <root>
        <mxCell id="0" />
        <mxCell id="1" parent="0" />
        <mxCell id="5E7DoI3xS24oE3ILswI5-49" style="edgeStyle=orthogonalEdgeStyle;rounded=0;orthogonalLoop=1;jettySize=auto;html=1;entryX=1;entryY=0.5;entryDx=0;entryDy=0;dashed=1;" edge="1" parent="1" source="5E7DoI3xS24oE3ILswI5-40" target="5E7DoI3xS24oE3ILswI5-42">
          <mxGeometry relative="1" as="geometry" />
        </mxCell>
        <mxCell id="5E7DoI3xS24oE3ILswI5-40" value="&lt;div&gt;Веб-браузер&lt;/div&gt;" style="shape=module;align=left;spacingLeft=20;align=center;verticalAlign=top;whiteSpace=wrap;html=1;" vertex="1" parent="1">
          <mxGeometry x="510" y="540" width="100" height="50" as="geometry" />
        </mxCell>
        <mxCell id="5E7DoI3xS24oE3ILswI5-41" value="&lt;div&gt;Антивирус&lt;/div&gt;" style="shape=module;align=left;spacingLeft=20;align=center;verticalAlign=top;whiteSpace=wrap;html=1;" vertex="1" parent="1">
          <mxGeometry x="510" y="430" width="100" height="50" as="geometry" />
        </mxCell>
        <mxCell id="5E7DoI3xS24oE3ILswI5-53" style="edgeStyle=orthogonalEdgeStyle;rounded=0;orthogonalLoop=1;jettySize=auto;html=1;entryX=1;entryY=0.5;entryDx=0;entryDy=0;dashed=1;" edge="1" parent="1" source="5E7DoI3xS24oE3ILswI5-42" target="5E7DoI3xS24oE3ILswI5-45">
          <mxGeometry relative="1" as="geometry" />
        </mxCell>
        <mxCell id="5E7DoI3xS24oE3ILswI5-55" style="edgeStyle=orthogonalEdgeStyle;rounded=0;orthogonalLoop=1;jettySize=auto;html=1;entryX=0.5;entryY=1;entryDx=0;entryDy=0;dashed=1;" edge="1" parent="1" source="5E7DoI3xS24oE3ILswI5-42" target="5E7DoI3xS24oE3ILswI5-40">
          <mxGeometry relative="1" as="geometry">
            <Array as="points">
              <mxPoint x="410" y="610" />
              <mxPoint x="560" y="610" />
            </Array>
          </mxGeometry>
        </mxCell>
        <mxCell id="5E7DoI3xS24oE3ILswI5-42" value="&lt;div&gt;сервер &lt;br&gt;&lt;/div&gt;&lt;div&gt;Apache&lt;br&gt;&lt;/div&gt;" style="shape=module;align=left;spacingLeft=20;align=center;verticalAlign=top;whiteSpace=wrap;html=1;" vertex="1" parent="1">
          <mxGeometry x="360" y="540" width="100" height="50" as="geometry" />
        </mxCell>
        <mxCell id="5E7DoI3xS24oE3ILswI5-47" style="edgeStyle=orthogonalEdgeStyle;rounded=0;orthogonalLoop=1;jettySize=auto;html=1;entryX=1;entryY=0.5;entryDx=0;entryDy=0;dashed=1;" edge="1" parent="1" source="5E7DoI3xS24oE3ILswI5-43" target="5E7DoI3xS24oE3ILswI5-41">
          <mxGeometry relative="1" as="geometry">
            <Array as="points">
              <mxPoint x="720" y="455" />
            </Array>
          </mxGeometry>
        </mxCell>
        <mxCell id="5E7DoI3xS24oE3ILswI5-48" style="edgeStyle=orthogonalEdgeStyle;rounded=0;orthogonalLoop=1;jettySize=auto;html=1;dashed=1;" edge="1" parent="1" source="5E7DoI3xS24oE3ILswI5-43" target="5E7DoI3xS24oE3ILswI5-40">
          <mxGeometry relative="1" as="geometry" />
        </mxCell>
        <mxCell id="5E7DoI3xS24oE3ILswI5-43" value="&lt;div&gt;Операционная &lt;br&gt;&lt;/div&gt;&lt;div&gt;система&lt;br&gt;&lt;/div&gt;" style="shape=module;align=left;spacingLeft=20;align=center;verticalAlign=top;whiteSpace=wrap;html=1;" vertex="1" parent="1">
          <mxGeometry x="660" y="540" width="120" height="50" as="geometry" />
        </mxCell>
        <mxCell id="5E7DoI3xS24oE3ILswI5-44" value="&lt;div&gt;СУБД&lt;br&gt;&lt;/div&gt;&lt;div&gt;MYSQL&lt;/div&gt;" style="shape=module;align=left;spacingLeft=20;align=center;verticalAlign=top;whiteSpace=wrap;html=1;" vertex="1" parent="1">
          <mxGeometry x="180" y="430" width="100" height="50" as="geometry" />
        </mxCell>
        <mxCell id="5E7DoI3xS24oE3ILswI5-45" value="&lt;div&gt;интерпретатор&lt;/div&gt;&lt;div&gt;PHP&lt;br&gt;&lt;/div&gt;" style="shape=module;align=left;spacingLeft=20;align=center;verticalAlign=top;whiteSpace=wrap;html=1;" vertex="1" parent="1">
          <mxGeometry x="180" y="540" width="130" height="50" as="geometry" />
        </mxCell>
        <mxCell id="5E7DoI3xS24oE3ILswI5-51" style="edgeStyle=orthogonalEdgeStyle;rounded=0;orthogonalLoop=1;jettySize=auto;html=1;entryX=0.65;entryY=1.04;entryDx=0;entryDy=0;entryPerimeter=0;dashed=1;" edge="1" parent="1" source="5E7DoI3xS24oE3ILswI5-45" target="5E7DoI3xS24oE3ILswI5-44">
          <mxGeometry relative="1" as="geometry" />
        </mxCell>
        <mxCell id="5E7DoI3xS24oE3ILswI5-52" style="edgeStyle=orthogonalEdgeStyle;rounded=0;orthogonalLoop=1;jettySize=auto;html=1;entryX=0.385;entryY=-0.1;entryDx=0;entryDy=0;entryPerimeter=0;dashed=1;" edge="1" parent="1" source="5E7DoI3xS24oE3ILswI5-44" target="5E7DoI3xS24oE3ILswI5-45">
          <mxGeometry relative="1" as="geometry" />
        </mxCell>
        <mxCell id="5E7DoI3xS24oE3ILswI5-56" style="edgeStyle=orthogonalEdgeStyle;rounded=0;orthogonalLoop=1;jettySize=auto;html=1;entryX=0;entryY=0;entryDx=0;entryDy=35;entryPerimeter=0;dashed=1;" edge="1" parent="1" source="5E7DoI3xS24oE3ILswI5-45" target="5E7DoI3xS24oE3ILswI5-42">
          <mxGeometry relative="1" as="geometry">
            <Array as="points">
              <mxPoint x="320" y="575" />
              <mxPoint x="320" y="575" />
            </Array>
          </mxGeometry>
        </mxCell>
      </root>
    </mxGraphModel>
  </diagram>
</mxfile>
